<?xml version="1.0" encoding="UTF-8" standalone="no"?>
<!-- Creator: CorelDRAW X6 -->

<svg
   xml:space="preserve"
   width="267.38315"
   height="289.43774"
   version="1.1"
   style="clip-rule:evenodd;fill-rule:evenodd;image-rendering:optimizeQuality;shape-rendering:geometricPrecision;text-rendering:geometricPrecision"
   viewBox="0 0 1004 1084.8925"
   id="svg10"
   xmlns="http://www.w3.org/2000/svg"
   xmlns:svg="http://www.w3.org/2000/svg">
 <defs
   id="defs4"><style
     type="text/css"
     id="style2">
   <![CDATA[
    .fil0 {fill:black;fill-rule:nonzero}
   ]]>
  </style></defs>
 <g
   id="Layer_x0020_1"
   transform="translate(-3010,-0.96211414)">
  <metadata
   id="CorelCorpID_0Corel-Layer" />
  
 <path
   class="fil0"
   d="m 3454,113 c 50,-6 100,-5 148,4 -29,83 -83,201 -180,343 -78,115 -185,246 -331,384 -32,-56 -54,-118 -62,-186 -34,-268 157,-512 425,-545 z m 545,548 c -28,216 -199,394 -425,422 -160,20 -312,-40 -415,-149 163,-102 308,-166 430,-207 218,-73 362,-70 410,-66 z m -907,277 826,-622 c 48,68 81,148 92,237 3,27 4,54 4,80 -52,-6 -400,-32 -920,307 z m -80,22 987,-745 C 3914,109 3797,33 3664,0 c -8,53 -89,466 -654,957 z"
   id="path7"
   style="clip-rule:evenodd;fill-rule:evenodd;image-rendering:optimizeQuality;shape-rendering:geometricPrecision;text-rendering:geometricPrecision" /></g>
</svg>
